<svg width="114" height="40" viewBox="0 0 114 40" fill="none" xmlns="http://www.w3.org/2000/svg">
<g clip-path="url(#clip0)">
<path d="M90.7231 32.6158C91.0297 32.6093 91.3363 32.6745 91.6168 32.8115C91.8451 32.9289 92.0473 33.0985 92.1973 33.3072C92.3474 33.516 92.4583 33.7508 92.517 34.0052C92.5822 34.2661 92.6148 34.5336 92.6148 34.801C92.6213 35.1337 92.5692 35.4664 92.4583 35.7795C92.3669 36.0404 92.2169 36.2688 92.0147 36.4644C91.819 36.6471 91.5842 36.7841 91.3232 36.8624C91.0362 36.9537 90.7296 36.9993 90.4296 36.9928H89.6859V39.8891H88.2965V32.6158H90.7231ZM90.2991 35.8969C90.547 35.91 90.7949 35.8121 90.971 35.6295C91.1602 35.3946 91.2515 35.1011 91.2254 34.801C91.2449 34.5075 91.1667 34.214 91.0036 33.9661C90.8144 33.7573 90.5405 33.653 90.26 33.6791H89.6794V35.8904L90.2991 35.8969ZM82.4778 37.6778C82.4778 37.8474 82.4844 38.017 82.5104 38.18C82.53 38.317 82.5692 38.454 82.6344 38.578C82.6931 38.6888 82.7779 38.7802 82.8888 38.8454C83.1432 38.9759 83.4433 38.9759 83.6977 38.8454C83.802 38.7802 83.8868 38.6888 83.9455 38.578C84.0108 38.454 84.0499 38.317 84.0695 38.18C84.0956 38.0104 84.1021 37.8474 84.1021 37.6778V32.6158H85.4915V37.6843C85.5046 38.0757 85.4393 38.4605 85.3089 38.8258C85.2045 39.0998 85.0349 39.3477 84.8131 39.5434C84.6109 39.7195 84.3695 39.8369 84.1086 39.9022C83.8412 39.9609 83.5672 39.9935 83.2867 39.9935C83.0127 39.9935 82.7388 39.9674 82.4648 39.9152C82.2039 39.863 81.9625 39.7521 81.7603 39.5825C81.5385 39.3933 81.3689 39.152 81.2645 38.878C81.1275 38.4931 81.0688 38.0952 81.0819 37.6843V32.6158H82.4713L82.4778 37.6778ZM73.8151 34.7228C73.8477 34.3053 73.9586 33.9008 74.1347 33.529C74.2913 33.2094 74.5391 32.9419 74.8457 32.7528C75.635 32.381 76.5483 32.381 77.3311 32.7528C77.6376 32.9354 77.8855 33.2029 78.0421 33.529C78.2182 33.9074 78.3291 34.3118 78.3617 34.7228C78.4596 35.7339 78.4596 36.758 78.3617 37.7691C78.3291 38.18 78.2182 38.5845 78.0421 38.9628C77.8921 39.289 77.6442 39.5564 77.3311 39.7391C76.5418 40.0913 75.635 40.0913 74.8457 39.7391C74.5326 39.5629 74.2847 39.289 74.1347 38.9628C73.9586 38.591 73.8477 38.1866 73.8151 37.7691C73.7172 36.758 73.7172 35.7339 73.8151 34.7228ZM75.1654 37.4886C75.1784 37.7691 75.2241 38.0496 75.3024 38.3235C75.348 38.5062 75.4524 38.6693 75.5894 38.7932C75.8894 38.9889 76.2808 38.9889 76.5809 38.7932C76.7244 38.6693 76.8223 38.5062 76.8679 38.3235C76.9462 38.0496 76.9919 37.7691 77.0049 37.4886C77.0245 37.1429 77.0375 36.7319 77.0375 36.2427C77.0375 35.7534 77.0245 35.3425 77.0049 35.0033C76.9919 34.7228 76.9462 34.4423 76.8679 34.1683C76.8223 33.9856 76.7179 33.8226 76.5809 33.6921C76.2808 33.4964 75.8894 33.4964 75.5894 33.6921C75.4459 33.816 75.348 33.9791 75.3024 34.1683C75.2241 34.4423 75.1784 34.7228 75.1654 35.0033C75.1458 35.3425 75.1328 35.7534 75.1328 36.2427C75.1328 36.7319 75.1458 37.1494 75.1654 37.4886ZM68.5639 35.786C68.8444 35.8056 69.1184 35.7143 69.3402 35.5382C69.5228 35.3751 69.6076 35.0946 69.6076 34.6967C69.6076 34.0248 69.288 33.6856 68.6422 33.6921H67.9899V35.7926L68.5639 35.786ZM69.1575 32.6158C69.6533 32.5832 70.136 32.7528 70.5078 33.0789C70.8275 33.3855 70.9905 33.8617 70.9905 34.4879C71.0101 34.9054 70.9123 35.3164 70.7101 35.6817C70.5209 35.9948 70.2012 36.21 69.8425 36.2753V36.2948C70.1295 36.3209 70.3969 36.4449 70.6057 36.6536C70.7949 36.908 70.8992 37.2211 70.9057 37.5408C70.9188 37.6778 70.9253 37.8278 70.9318 37.9843C70.9384 38.1409 70.9449 38.3235 70.9514 38.5192C70.9645 38.9041 70.984 39.2042 71.0101 39.4064C71.0297 39.576 71.121 39.726 71.2645 39.8239V39.8826H69.7577C69.6859 39.7782 69.6403 39.6543 69.6207 39.5303C69.6011 39.3999 69.5881 39.2629 69.5816 39.1194L69.5424 37.7234C69.5489 37.4821 69.4772 37.2537 69.3467 37.0515C69.1902 36.8754 68.9618 36.7841 68.727 36.8102H67.9899V39.8826H66.6005V32.6158H69.1575ZM62.3147 34.3509C62.2887 34.214 62.243 34.0835 62.1778 33.9661C62.1191 33.8487 62.0342 33.7508 61.9299 33.6725C61.8255 33.5943 61.7016 33.5486 61.5711 33.5551C61.2384 33.5551 60.9971 33.7508 60.847 34.1422C60.697 34.5336 60.6252 35.1859 60.6252 36.0992C60.6252 36.5362 60.6383 36.9276 60.6644 37.2798C60.684 37.5864 60.7296 37.8865 60.8014 38.18C60.847 38.3888 60.9514 38.5845 61.0884 38.7476C61.2189 38.878 61.395 38.9498 61.5776 38.9432C61.6755 38.9432 61.7668 38.9172 61.8516 38.8715C61.956 38.8193 62.0538 38.7476 62.1321 38.6562C62.2234 38.5519 62.3017 38.4279 62.3474 38.2975C62.4061 38.1344 62.4387 37.9583 62.4322 37.7821V37.0385H61.5189V35.9622H63.7629V39.8826H62.7388V39.2107H62.7192C62.5822 39.4651 62.3735 39.6738 62.1191 39.8174C61.8581 39.9413 61.5646 40.0065 61.2776 39.9935C60.9188 40.0065 60.56 39.9282 60.2404 39.7586C59.9599 39.589 59.7446 39.3346 59.6142 39.0346C59.4511 38.6497 59.3467 38.2453 59.3076 37.8278C59.2554 37.2733 59.2293 36.7189 59.2293 36.1644C59.2228 35.623 59.2619 35.0881 59.3402 34.5532C59.3989 34.1487 59.5294 33.7508 59.7251 33.392C59.8947 33.0985 60.136 32.8571 60.4361 32.6941C60.7818 32.5245 61.1601 32.4462 61.545 32.4592C62.3017 32.4592 62.8496 32.6549 63.1823 33.0528C63.515 33.4507 63.6846 34.0183 63.6846 34.7554H62.3539C62.3539 34.6184 62.3408 34.4749 62.3082 34.3379L62.3147 34.3509ZM48.6683 32.6093H50.0577V38.6758H52.5104V39.8761H48.6618L48.6683 32.6093ZM45.9481 33.8095H43.4824V35.5186H45.8046V36.7189H43.4824V38.6758H46.0395V39.8761H42.093V32.6093H45.9416L45.9481 33.8095ZM39.575 33.8095H38.0682V39.8761H36.6853V33.816H35.1784V32.6158H39.575V33.8095ZM28.1791 34.7228C28.2117 34.3053 28.3226 33.9008 28.4987 33.529C28.6553 33.2094 28.9031 32.9419 29.2097 32.7528C29.999 32.381 30.9123 32.381 31.695 32.7528C32.0016 32.9354 32.2495 33.2029 32.4061 33.529C32.5822 33.9074 32.6931 34.3118 32.7257 34.7228C32.8235 35.7339 32.8235 36.758 32.7257 37.7691C32.6931 38.18 32.5822 38.5845 32.4061 38.9628C32.256 39.289 32.0082 39.5564 31.695 39.7391C30.9057 40.0913 29.999 40.0913 29.2097 39.7391C28.8966 39.5629 28.6487 39.289 28.4987 38.9628C28.3226 38.591 28.2182 38.1866 28.1791 37.7756C28.0812 36.7645 28.0812 35.7469 28.1791 34.7228ZM29.5294 37.5016C29.5424 37.7821 29.5881 38.0626 29.6663 38.3366C29.712 38.5192 29.8164 38.6823 29.9534 38.8063C30.2534 39.002 30.6448 39.002 30.9449 38.8063C31.0884 38.6823 31.1862 38.5192 31.2319 38.3366C31.3102 38.0626 31.3558 37.7821 31.3689 37.5016C31.3885 37.1559 31.4015 36.7449 31.4015 36.2557C31.4015 35.7665 31.3885 35.3555 31.3689 35.0163C31.3558 34.7358 31.3102 34.4553 31.2319 34.1813C31.1862 33.9987 31.0819 33.8356 30.9449 33.7052C30.6448 33.5095 30.2534 33.5095 29.9534 33.7052C29.8098 33.8291 29.712 33.9922 29.6663 34.1813C29.5881 34.4553 29.5424 34.7358 29.5294 35.0163C29.5098 35.3555 29.4967 35.7665 29.4967 36.2557C29.4967 36.7449 29.5098 37.1559 29.5294 37.5016ZM22.3539 32.6158V35.3946H23.9716V32.6158H25.3611V39.8826H23.9716V36.6536H22.3539V39.8826H20.9644V32.6158H22.3539ZM14.2065 16.5819C14.2065 18.4671 13.0845 19.3868 10.7753 19.3868H5.69373V13.516H10.8731C13.1171 13.516 14.2065 14.5205 14.2065 16.5819ZM13.2932 6.95369C13.2932 9.02805 11.7733 9.4651 10.5013 9.4651H5.69373V4.54012H10.1099C12.2756 4.54012 13.2867 5.31637 13.2867 6.95369H13.2932ZM15.9742 10.8871C17.7811 9.79126 18.6618 8.20613 18.6618 6.07306C18.6618 1.98956 16.196 0.00652316 11.121 0.00652316H0.42302C0.272988 0 0.149048 0.117417 0.149048 0.267449V0.280496V23.653C0.149048 23.803 0.266465 23.9269 0.416497 23.9269H11.4341C15.2632 23.9269 19.7316 22.0809 19.7316 16.8754C19.7316 13.94 18.4008 11.833 15.9612 10.8806L15.9742 10.8871ZM32.2952 17.0972C32.2952 19.5369 31.1862 20.7175 28.8966 20.7175C27.2136 20.7175 26.3852 20.0978 26.3852 18.8324C26.3852 17.5669 27.0962 16.9406 28.8444 16.6145C29.1901 16.5492 29.5489 16.4971 29.9012 16.4514C30.7948 16.3209 31.6559 16.2035 32.2887 15.8708L32.2952 17.0972ZM37.3506 23.6464V11.0828C37.3506 7.71037 34.8262 5.99478 29.849 5.99478C25.3871 5.99478 22.5039 7.85388 21.9364 11.0959C21.9234 11.1676 21.9364 11.2394 21.9821 11.3046C22.0212 11.3633 22.0864 11.4025 22.1582 11.4155L26.607 12.1722C26.6787 12.1853 26.757 12.1657 26.8157 12.12C26.8744 12.0744 26.9136 12.0026 26.9201 11.9243C27.0701 10.3783 27.9312 9.65427 29.6468 9.65427C31.2906 9.65427 32.3082 9.99348 32.3082 11.683C32.3735 12.9289 30.9318 13.1637 28.5704 13.4377C25.3676 13.8095 21.3819 14.2727 21.3428 19.0411C21.3428 22.3418 23.5933 24.3901 27.2202 24.3901C29.3337 24.3901 31.0036 23.8095 32.3147 22.6484V23.653C32.3147 23.803 32.4322 23.9269 32.5822 23.9269H37.1158C37.2658 23.9269 37.3832 23.803 37.3832 23.653L37.3506 23.6464ZM49.5033 10.711L51.0427 6.46445C51.0688 6.39269 51.0623 6.30789 51.0297 6.24266C50.9971 6.17091 50.9318 6.12524 50.8601 6.10567C50.5861 6.03392 50.3056 5.99478 50.0251 5.99478C47.7029 5.99478 45.896 7.01892 44.9697 8.68232V6.7319C44.9697 6.58187 44.8523 6.45793 44.7022 6.45793H40.3969C40.2469 6.45793 40.1295 6.58187 40.1295 6.7319V23.6595C40.1295 23.8095 40.2469 23.9335 40.3969 23.9335H44.924C45.074 23.9335 45.1915 23.8095 45.1915 23.6595V16.0274C45.1915 12.668 46.5418 10.9328 49.2489 10.8741C49.3598 10.8676 49.4576 10.8023 49.4902 10.698L49.5033 10.711ZM67.2593 17.9909C67.2724 17.9191 67.2593 17.8408 67.2202 17.7756C67.181 17.7169 67.1158 17.6712 67.044 17.6582L62.804 16.9341C62.7388 16.9211 62.667 16.9406 62.6083 16.9798C62.5496 17.0254 62.5104 17.0907 62.5039 17.1624C62.2952 18.604 61.5515 20.3196 59.1771 20.3196C56.6005 20.3196 55.6872 17.7038 55.6872 15.2577C55.6872 14.3836 55.8633 10.0391 59.275 10.0391C61.0753 10.0391 62.0864 10.9132 62.3539 12.7071C62.3669 12.7789 62.4061 12.8441 62.4648 12.8898C62.5235 12.9289 62.5887 12.9485 62.6605 12.9354L67.0114 12.1983C67.1615 12.1722 67.2593 12.0287 67.2332 11.8852C66.6657 8.30398 63.5607 5.98826 59.3076 5.98826C54.0369 5.98826 50.6252 9.69341 50.6252 15.4338C50.6252 20.7045 54.1543 24.3836 59.2097 24.3836C63.4824 24.3901 66.4243 22.0613 67.2593 17.9909ZM80.7949 13.0985H74.0434C74.1804 12.107 74.8001 10.0457 77.5072 10.0457C79.3663 10.0457 80.3317 10.9328 80.7818 13.0985H80.7949ZM85.9286 15.5512V15.499C85.9416 12.7267 85.0806 10.2087 83.515 8.4801C82.0408 6.85584 80.0056 6.0013 77.6376 6.0013C72.6148 6.0013 68.9553 9.86954 68.9553 15.212C68.9553 20.7045 72.4322 24.3901 77.6376 24.3901C81.3885 24.3901 83.9716 22.6875 85.3089 19.3346C85.3415 19.2564 85.335 19.1716 85.2958 19.0998C85.2567 19.028 85.1849 18.9759 85.1001 18.9628L81.3428 18.317C81.2189 18.2975 81.0949 18.3692 81.0493 18.4866C80.6905 19.3933 79.3728 20.3392 77.7877 20.3392C75.4132 20.3392 74.213 19.1455 74.0238 16.6014H84.9044C85.472 16.5949 85.9286 16.1252 85.9221 15.5512H85.9286ZM93.6455 23.653V0.280496C93.6455 0.130463 93.5281 0.00652316 93.378 0.00652316H88.5444C88.4009 0.0130463 88.29 0.136986 88.29 0.280496V23.653C88.29 23.803 88.4074 23.9269 88.5574 23.9269H93.3911C93.5411 23.9269 93.6585 23.803 93.6585 23.653H93.6455ZM110.162 0.424005C110.234 0.35225 110.26 0.24788 110.221 0.156556C110.188 0.0652316 110.097 0 109.999 0H105.524C105.446 0 105.374 0.0456621 105.328 0.110894L102.595 4.2531C102.543 4.33138 102.543 4.4227 102.582 4.5075C102.621 4.58578 102.706 4.63796 102.791 4.63796H105.615C105.674 4.63796 105.733 4.61839 105.779 4.57273L110.162 0.424005ZM108.355 15.2055C108.355 17.1233 107.866 20.3327 104.604 20.3327C101.343 20.3327 100.886 17.1233 100.886 15.2055C100.886 13.2877 101.369 10.0457 104.604 10.0457C107.84 10.0457 108.355 13.2746 108.355 15.2055ZM113.417 15.2055C113.417 9.60209 109.96 5.99478 104.611 5.99478C99.2619 5.99478 95.8307 9.60861 95.8307 15.2055C95.8307 20.8023 99.275 24.3836 104.604 24.3836C109.934 24.3836 113.424 20.7828 113.417 15.2055Z" fill="#CBC7D4"/>
</g>
<defs>
<clipPath id="clip0">
<rect width="113.275" height="40" fill="white" transform="translate(0.149048)"/>
</clipPath>
</defs>
</svg>
