<svg width="74" height="65" viewBox="0 0 74 65" fill="none" xmlns="http://www.w3.org/2000/svg">
<path d="M19 -1.00136e-05L26.8 5.59999C25.3333 7.46666 23.6667 10.1333 21.8 13.6C20.0667 17.0667 18.5333 20.9333 17.2 25.2C15.8667 29.3333 15.2667 33.3333 15.4 37.2C16.3333 36.9333 17.0667 36.8 17.6 36.8C18.2667 36.6667 18.9333 36.6 19.6 36.6C23.2 36.6 26.4 37.6667 29.2 39.8C32 41.9333 33.4 45.2667 33.4 49.8C33.4 53.8 32.0667 57.3333 29.4 60.4C26.8667 63.3333 23.4 64.8 19 64.8C12.8667 64.9333 8.26667 63 5.2 59C2.13333 54.8667 0.6 49.8 0.6 43.8C0.6 37.4 2.06667 30.4667 5 23C8.06667 15.4 12.7333 7.73333 19 -1.00136e-05ZM59 -1.00136e-05L66.8 5.59999C65.3333 7.46666 63.6667 10.1333 61.8 13.6C60.0667 17.0667 58.5333 20.9333 57.2 25.2C55.8667 29.3333 55.2667 33.3333 55.4 37.2C56.3333 36.9333 57.0667 36.8 57.6 36.8C58.2667 36.6667 58.9333 36.6 59.6 36.6C63.2 36.6 66.4 37.6667 69.2 39.8C72 41.9333 73.4 45.2667 73.4 49.8C73.4 53.8 72.0667 57.3333 69.4 60.4C66.8667 63.3333 63.4 64.8 59 64.8C52.8667 64.9333 48.2667 63 45.2 59C42.1333 54.8667 40.6 49.8 40.6 43.8C40.6 37.4 42.0667 30.4667 45 23C48.0667 15.4 52.7333 7.73333 59 -1.00136e-05Z" fill="#EFEDF3"/>
</svg>
