<svg width="123" height="40" viewBox="0 0 123 40" fill="none" xmlns="http://www.w3.org/2000/svg">
<g clip-path="url(#clip0)">
<path d="M15.5159 0.00427246H16.6057C20.3891 0.0865201 24.1108 1.6081 26.7838 4.30171C25.7969 5.30925 24.7893 6.27566 23.8229 7.28319C22.3219 5.9261 20.5124 4.87744 18.5385 4.50733C15.6187 3.89047 12.4727 4.44564 10.0259 6.11116C7.35282 7.85892 5.54337 10.8198 5.15269 13.9864C4.72089 17.1118 5.60505 20.4017 7.64068 22.828C9.59406 25.1926 12.5755 26.6731 15.6598 26.7759C18.5385 26.9404 21.5405 26.0562 23.6379 24.0411C25.2828 22.6224 26.0436 20.4634 26.2903 18.3661C22.8771 18.3661 19.4638 18.3866 16.0505 18.3661V14.1303H30.4233C31.1635 18.6745 30.0943 23.7944 26.6399 27.0432C24.337 29.3461 21.1499 30.7032 17.9011 30.9705C14.7551 31.2789 11.5063 30.6826 8.7099 29.1611C5.35831 27.3722 2.68526 24.3496 1.3693 20.7924C0.135583 17.523 0.115021 13.8219 1.26649 10.532C2.31515 7.52993 4.33021 4.87745 6.92102 3.02687C9.40901 1.19686 12.4316 0.18933 15.5159 0.00427246Z" fill="#CBC7D4"/>
<path d="M97.9694 1.07275H102.37V30.4352C100.91 30.4352 99.4292 30.4557 97.9694 30.4146C97.9899 20.6477 97.9694 10.8602 97.9694 1.07275Z" fill="#CBC7D4"/>
<path d="M40.2109 11.2509C42.9251 10.7368 45.8654 11.3126 48.1067 12.937C50.1423 14.3763 51.5611 16.6381 51.9929 19.1055C52.5481 21.9636 51.849 25.089 49.9984 27.3508C48.0039 29.88 44.7345 31.237 41.5474 31.0314C38.6276 30.8669 35.7901 29.407 34.0629 27.0219C32.1095 24.3899 31.6366 20.771 32.7058 17.6868C33.775 14.3763 36.7976 11.8472 40.2109 11.2509ZM40.8278 15.1576C39.7174 15.4455 38.6893 16.0829 37.9491 16.9877C35.9546 19.3728 36.078 23.259 38.2781 25.4797C39.5324 26.7546 41.4241 27.3508 43.1718 27.0013C44.7962 26.7134 46.215 25.6236 46.9964 24.1843C48.3534 21.7374 47.9628 18.3653 45.886 16.453C44.5495 15.2193 42.5961 14.7053 40.8278 15.1576Z" fill="#CBC7D4"/>
<path d="M62.0064 11.2509C65.1113 10.6546 68.504 11.5182 70.8275 13.6978C74.6109 17.0905 75.0221 23.4441 71.7939 27.3509C69.8405 29.8183 66.674 31.1754 63.5486 31.0315C60.5671 30.9492 57.6268 29.4688 55.8584 27.0219C53.8639 24.3283 53.4321 20.6272 54.563 17.4812C55.6939 14.2735 58.6549 11.8267 62.0064 11.2509ZM62.6233 15.1577C61.513 15.4456 60.4849 16.083 59.7446 16.9671C57.7707 19.3112 57.8529 23.1357 59.9708 25.377C61.2251 26.7135 63.1785 27.3715 64.9879 27.0014C66.5917 26.6929 68.0311 25.6237 68.8124 24.1844C70.149 21.7169 69.7583 18.3448 67.661 16.4325C66.3244 15.1988 64.3711 14.7053 62.6233 15.1577Z" fill="#CBC7D4"/>
<path d="M80.4917 12.4434C82.8563 10.963 86.0023 10.5517 88.552 11.8266C89.3539 12.1761 90.0119 12.7724 90.6493 13.3687C90.6698 12.8135 90.6493 12.2378 90.6698 11.6621C92.0475 11.6826 93.4251 11.6621 94.8234 11.6826V29.8182C94.8028 32.553 94.1037 35.4522 92.1297 37.4467C89.9707 39.6468 86.6603 40.3254 83.6788 39.873C80.4917 39.4001 77.7158 37.0766 76.4821 34.1363C77.7158 33.54 79.0112 33.067 80.2861 32.5119C81.0057 34.1979 82.4656 35.6373 84.2957 35.9663C86.1257 36.2953 88.2435 35.8429 89.4361 34.3213C90.711 32.7586 90.711 30.6202 90.6493 28.7079C89.7034 29.6332 88.6137 30.4557 87.2977 30.7641C84.4396 31.566 81.2936 30.579 79.0935 28.6462C76.8728 26.7134 75.5568 23.7319 75.6802 20.771C75.7419 17.4194 77.6336 14.1912 80.4917 12.4434ZM84.748 15.0754C83.4937 15.281 82.3217 15.9801 81.5198 16.9465C79.587 19.2494 79.587 22.93 81.5404 25.1918C82.6507 26.5283 84.4396 27.2686 86.1668 27.0835C87.7912 26.919 89.2922 25.8909 90.0941 24.4721C91.4512 22.0664 91.225 18.7971 89.395 16.6997C88.2641 15.4043 86.4547 14.7669 84.748 15.0754Z" fill="#CBC7D4"/>
<path d="M107.654 13.4922C110.121 11.1893 113.925 10.4079 117.092 11.6211C120.094 12.752 122.006 15.6101 122.973 18.5505C118.511 20.401 114.069 22.231 109.607 24.0816C110.224 25.2536 111.17 26.3229 112.445 26.7547C114.234 27.3921 116.372 27.1659 117.873 25.9733C118.47 25.5209 118.943 24.9246 119.395 24.3489C120.526 25.1097 121.657 25.8499 122.788 26.6107C121.184 29.0165 118.49 30.7025 115.591 30.9698C112.383 31.3605 108.97 30.1268 106.893 27.6183C103.48 23.6704 103.809 17.0494 107.654 13.4922ZM109.854 17.2962C109.155 18.3037 108.867 19.5374 108.888 20.7506C111.869 19.5169 114.851 18.2831 117.832 17.0289C117.339 15.8774 116.146 15.1783 114.933 14.9932C112.98 14.6437 110.944 15.6923 109.854 17.2962Z" fill="#CBC7D4"/>
</g>
<defs>
<clipPath id="clip0">
<rect width="122.549" height="40" fill="white" transform="translate(0.423584)"/>
</clipPath>
</defs>
</svg>
