<svg width="137" height="40" viewBox="0 0 137 40" fill="none" xmlns="http://www.w3.org/2000/svg">
<path fill-rule="evenodd" clip-rule="evenodd" d="M0 0H27.9165V40H0V0ZM4.02371 35.9732H23.8788V4.02836H4.02371V35.9732Z" fill="#CBC7D4"/>
<path fill-rule="evenodd" clip-rule="evenodd" d="M46.4601 17.9463H44.7333C42.465 14.7422 40.2153 11.5583 37.9688 7.95985H37.9525V17.9463H36.0437V4.02213H37.772C40.0403 7.20376 42.2868 10.3652 44.5125 13.945H44.552V4.02213H46.4608V17.9463H46.4601ZM50.9974 12.4352C51.5513 10.6046 52.1091 8.91426 52.6072 6.76529H52.6475C53.2037 8.91426 53.7018 10.6054 54.2185 12.4352H50.9974ZM51.91 4.02213L47.0992 17.9463H49.1676L50.3776 14.1457H54.5772L55.6703 17.9463H58.3375L53.9001 4.02213H51.91ZM60.5833 17.9463V5.8899H56.9222V4.02213H66.6282V5.8899H62.9701V17.9463H60.5833ZM67.4021 4.02213H69.7726V17.9463H67.4021V4.02213ZM77.1321 16.1932C74.643 16.1932 73.7684 13.4485 73.7684 10.7828C73.7684 8.21782 74.7623 5.7706 77.1321 5.7706C79.4988 5.7706 80.4896 8.21782 80.4896 10.7828C80.4896 13.4485 79.6165 16.1932 77.1321 16.1932ZM77.1321 18.1818C80.7708 18.1818 83.0375 14.9413 83.0375 10.782C83.0375 6.88459 80.5353 3.78198 77.1321 3.78198C73.732 3.78198 71.2189 6.88459 71.2189 10.782C71.2197 14.9421 73.4903 18.1818 77.1321 18.1818ZM94.9119 17.9463H93.1828C90.9129 14.7422 88.6648 11.5583 86.4198 7.95985H86.4004V17.9463H84.4939V4.02213H86.223C88.4882 7.20376 90.7363 10.3652 92.9604 13.945H93.0015V4.02213H94.9126V17.9463H94.9119ZM99.4469 12.4352C100.005 10.6046 100.559 8.91426 101.06 6.76529H101.099C101.656 8.91426 102.152 10.6054 102.668 12.4352H99.4469ZM100.364 4.02213L95.551 17.9463H97.6209L98.831 14.1457H103.03L104.124 17.9463H106.788L102.351 4.02213H100.364ZM107.481 4.02213H109.852V16.0754H114.564V17.9463H107.481V4.02213ZM44.9928 29.5929V35.3395C43.7185 35.8392 42.3852 36.1947 41.0365 36.1947C36.9377 36.1947 34.3525 33.0123 34.3525 28.9143C34.3525 25.1137 36.9377 21.7934 41.1147 21.7934C42.4054 21.7934 43.6991 22.2729 44.4955 22.8686L43.7192 24.5195C43.084 24.1252 42.087 23.7866 41.1736 23.7866C38.6296 23.7866 36.8974 25.7962 36.8974 28.9592C36.8974 32.2586 38.8875 34.2061 40.9366 34.2061C41.5703 34.2061 42.1102 34.1302 42.6099 33.8691V29.5929H44.9928ZM53.5298 23.9059H49.5472V27.7228H53.4454V29.5929H49.5472V34.0853H54.241V35.9577H47.1588V22.0327H53.5298V23.9059ZM60.8885 34.2053C58.3995 34.2053 57.5233 31.463 57.5233 28.7957C57.5233 26.2323 58.518 23.7859 60.8885 23.7859C63.2536 23.7859 64.246 26.2323 64.246 28.7957C64.246 31.463 63.3691 34.2053 60.8885 34.2053ZM60.8885 36.1947C64.5265 36.1947 66.7924 32.9527 66.7924 28.795C66.7924 24.8975 64.2878 21.7926 60.8885 21.7926C57.483 21.7926 54.98 24.8975 54.98 28.795C54.9793 32.9535 57.2429 36.1947 60.8885 36.1947ZM78.2476 29.5929V35.3395C76.9733 35.8392 75.6439 36.1947 74.2898 36.1947C70.194 36.1947 67.6066 33.0123 67.6066 28.9143C67.6066 25.1137 70.194 21.7934 74.3711 21.7934C75.6648 21.7934 76.9555 22.2729 77.7495 22.8686L76.9733 24.5195C76.3365 24.1252 75.348 23.7866 74.4316 23.7866C71.8821 23.7866 70.1514 25.7962 70.1514 28.9592C70.1514 32.2586 72.1424 34.2061 74.1914 34.2061C74.8297 34.2061 75.3643 34.1302 75.8632 33.8691V29.5929H78.2476ZM82.8276 23.9059H83.8788C85.2872 23.9059 86.0851 24.7178 86.0851 26.1517C86.0851 28.0195 84.9533 28.8538 83.8184 28.9135C83.579 28.9375 83.0212 28.9576 82.8276 28.9747V23.9059ZM88.8724 35.9577L86.0626 30.1917C87.5942 29.3783 88.4742 27.7228 88.4742 26.0518C88.4742 23.3443 86.8203 22.0327 84.1546 22.0327H80.4353V35.9577H82.8276V30.7069H83.9005L86.144 35.9577H88.8724ZM92.8094 30.4474C93.3648 28.6145 93.9218 26.9256 94.4207 24.7774H94.4602C95.0172 26.9256 95.513 28.6145 96.0305 30.4474H92.8094ZM93.7227 22.0327L88.9081 35.9577H90.9765L92.1912 32.1571H96.39L97.4776 35.9577H100.148L95.7098 22.0327H93.7227ZM104.622 22.0327H100.902V35.9577H103.29V30.7069H104.361C107.208 30.7069 108.94 28.3991 108.94 26.0518C108.94 23.3435 107.287 22.0327 104.622 22.0327ZM104.287 28.9143C104.039 28.9367 103.457 28.9553 103.29 28.9716V23.9059H104.361C105.754 23.9059 106.552 24.7178 106.552 26.1517C106.552 28.0195 105.422 28.8546 104.287 28.9143ZM119.997 35.9577H117.611V29.2567H112.654V35.9577H110.294V22.0327H112.654V27.3835H117.611V22.0723H119.997V35.9577ZM122.282 22.0327H124.654V35.9577H122.282V22.0327ZM135.391 24.5605C134.813 24.2019 133.862 23.7859 132.943 23.7859C130.512 23.7859 128.748 25.7954 128.748 28.9584C128.748 32.2578 130.696 34.2053 133.005 34.2053C133.85 34.2014 134.676 33.9598 135.391 33.5081L136.049 35.2403C135.329 35.7369 134.06 36.1947 132.908 36.1947C128.809 36.1947 126.221 33.0123 126.221 28.9143C126.221 25.1137 128.786 21.7934 132.943 21.7934C134.179 21.7934 135.329 22.314 136.149 22.8686L135.391 24.5605Z" fill="#CBC7D4"/>
</svg>
