<svg width="1440" height="1258" viewBox="0 0 1440 1258" fill="none" xmlns="http://www.w3.org/2000/svg">
<path fill-rule="evenodd" clip-rule="evenodd" d="M428.458 554.347C448.455 524.324 466.367 496.589 482.872 470.97C483.735 469.63 484.595 468.295 485.451 466.966L485.543 466.823L486.655 465.096L486.659 465.09C501.698 441.742 515.581 420.189 528.847 400.286C557.595 357.158 583.423 321.817 611.781 292.833C668.453 234.91 735.303 202.297 855.969 183.871C916.007 174.703 962.836 202.416 1002.43 248.03C1042.04 293.669 1074.31 357.119 1105.2 419.184C1105.74 420.262 1106.27 421.34 1106.81 422.417L1108.49 425.796L1109.24 427.307L1109.33 427.478C1138.7 486.568 1167.07 543.629 1199.59 581.688C1216.61 601.617 1234.82 616.397 1254.97 623.517C1275.15 630.646 1297.19 630.069 1321.81 619.418C1353.74 605.609 1374.8 590.888 1388.57 575.612C1387.61 583.077 1387.47 590.677 1387.71 598.357C1384.69 605.073 1382.81 611.96 1381.72 618.972C1368.19 634.647 1346.97 649.837 1313.99 664.105C1289.68 674.622 1268.02 675.156 1248.24 668.166C1228.43 661.167 1210.43 646.599 1193.49 626.777C1161.1 588.864 1132.81 531.956 1103.39 472.783C1102.03 470.053 1100.68 467.317 1099.31 464.579C1068.44 402.55 1036.09 338.919 996.33 293.11C956.548 247.278 909.246 219.177 848.51 228.452C727.627 246.911 660.44 279.626 603.476 337.847C575.017 366.935 549.127 402.37 520.367 445.517C507.093 465.431 493.203 486.996 478.165 510.343L478.143 510.377L477.869 510.802L475.772 514.058L474.378 516.221C457.874 541.839 439.968 569.566 419.977 599.579C356.19 695.347 256.788 723.813 158.312 720.441C59.8197 717.068 -37.6368 681.839 -97.279 650.357L-97.9792 651.683C-38.1944 683.241 59.4845 718.557 158.261 721.94C257.054 725.323 357.053 696.757 421.226 600.41C441.223 570.387 459.134 542.652 475.639 517.033C476.909 515.063 478.17 513.105 479.423 511.159L479.432 511.146L479.432 511.145L479.436 511.139L479.448 511.12L479.453 511.113C494.482 487.78 508.356 466.24 521.615 446.349C550.362 403.221 576.19 367.881 604.549 338.896C661.221 280.973 728.071 248.36 848.737 229.935C908.775 220.767 955.604 248.479 995.197 294.093C1034.81 339.732 1067.08 403.182 1097.97 465.247C1099.32 467.958 1100.66 470.666 1102.01 473.37L1102.09 473.541C1131.47 532.631 1159.84 589.692 1192.35 627.752C1209.38 647.68 1227.59 662.46 1247.74 669.58C1267.92 676.709 1289.96 676.133 1314.58 665.481C1346.5 651.672 1367.57 636.951 1381.34 621.675C1380.38 629.141 1380.24 636.74 1380.47 644.42C1377.45 651.136 1375.58 658.023 1374.49 665.036C1360.96 680.711 1339.73 695.9 1306.75 710.168C1282.44 720.685 1260.79 721.219 1241.01 714.229C1221.2 707.23 1203.2 692.662 1186.26 672.841C1153.87 634.927 1125.58 578.019 1096.16 518.846L1095.87 518.264L1095.25 517.009C1094.19 514.889 1093.14 512.767 1092.08 510.642C1061.21 448.613 1028.86 384.982 989.098 339.173C949.315 293.341 902.014 265.241 841.278 274.515C720.395 292.974 653.208 325.69 596.244 383.91C567.785 412.998 541.894 448.433 513.134 491.58C499.861 511.495 485.97 533.059 470.933 556.406L470.91 556.44L468.342 560.427L467.146 562.284C450.641 587.903 432.735 615.629 412.745 645.642C348.958 741.411 249.555 769.877 151.08 766.504C52.5874 763.131 -44.8692 727.902 -104.511 696.42L-105.212 697.747C-45.4267 729.304 52.2521 764.62 151.028 768.003C249.821 771.387 349.821 742.82 413.993 646.474C433.99 616.451 451.902 588.715 468.407 563.097L470.35 560.081L472.05 557.441L472.191 557.223L472.199 557.209L472.2 557.209L472.203 557.204C487.238 533.861 501.119 512.312 514.383 492.412C543.13 449.284 568.958 413.944 597.316 384.959C653.989 327.037 720.838 294.424 841.504 275.998C901.543 266.83 948.372 294.542 987.965 340.157C1027.58 385.795 1059.85 449.245 1090.74 511.311C1091.22 512.288 1091.71 513.265 1092.2 514.241L1093.37 516.609L1094.86 519.605C1124.24 578.694 1152.61 635.756 1185.12 673.815C1202.15 693.743 1220.36 708.523 1240.51 715.643C1260.68 722.772 1282.73 722.196 1307.35 711.545C1339.27 697.735 1360.34 683.014 1374.1 667.738C1372.65 679.103 1373.09 690.779 1373.85 702.575C1360.99 721.266 1338.45 739.391 1299.52 756.231C1275.21 766.748 1253.56 767.282 1233.78 760.292C1213.97 753.294 1195.96 738.725 1179.03 718.904C1146.64 680.991 1118.35 624.082 1088.93 564.909L1088.72 564.485C1088.01 563.055 1087.29 561.625 1086.58 560.193L1086.04 559.094C1085.64 558.298 1085.24 557.502 1084.85 556.706C1053.98 494.677 1021.63 431.045 981.865 385.237C942.083 339.404 894.782 311.304 834.045 320.578C713.162 339.037 645.976 371.753 589.012 429.974C560.552 459.061 534.662 494.496 505.902 537.644C492.628 557.558 478.738 579.122 463.7 602.469L461.688 605.593L459.914 608.347C443.409 633.966 425.503 661.693 405.513 691.705C341.725 787.474 242.323 815.94 143.847 812.567C45.355 809.194 -52.1015 773.966 -111.744 742.483L-112.444 743.81C-52.6591 775.367 45.0197 810.683 143.796 814.066C242.589 817.45 342.589 788.883 406.761 692.537C426.758 662.514 444.67 634.779 461.175 609.16L464.644 603.773L464.958 603.286L464.968 603.27L464.969 603.269L464.98 603.252C480.012 579.915 493.889 558.37 507.15 538.476C535.898 495.347 561.725 460.007 590.084 431.023C646.756 373.1 713.606 340.487 834.272 322.061C894.31 312.893 941.139 340.605 980.733 386.22C1020.35 431.858 1052.62 495.308 1083.5 557.374C1084.36 559.096 1085.22 560.818 1086.07 562.538L1087.63 565.668C1117.01 624.758 1145.38 681.819 1177.89 719.878C1194.91 739.807 1213.13 754.587 1233.28 761.707C1253.45 768.835 1275.5 768.259 1300.12 757.608C1338.16 741.152 1360.78 723.401 1374.01 704.96C1374.07 705.943 1374.14 706.927 1374.21 707.912L1374.34 709.772C1374.86 717.231 1375.39 724.725 1375.53 732.22C1375.25 732.905 1374.96 733.59 1374.66 734.274C1364.17 758.023 1341.12 781.17 1292.29 802.295C1267.98 812.811 1246.33 813.346 1226.54 806.356C1206.74 799.357 1188.73 784.789 1171.8 764.967C1139.41 727.054 1111.11 670.145 1081.7 610.973L1081.41 610.391L1080.78 609.136C1079.73 607.016 1078.67 604.893 1077.62 602.769C1046.75 540.74 1014.39 477.108 974.633 431.3C934.851 385.467 887.549 357.367 826.813 366.641C705.93 385.1 638.743 417.816 581.779 476.037C553.32 505.124 527.43 540.56 498.67 583.707C485.396 603.621 471.506 625.186 456.468 648.532L454.685 651.299L452.681 654.411C436.177 680.029 418.271 707.756 398.28 737.769C334.493 833.537 235.091 862.003 136.615 858.63C38.1227 855.257 -59.3339 820.029 -118.976 788.547L-119.676 789.873C-59.8915 821.431 37.7874 856.747 136.564 860.13C235.357 863.513 335.356 834.947 399.529 738.6C419.526 708.577 437.437 680.842 453.942 655.223L456.438 651.349L457.726 649.349L457.733 649.338L457.737 649.331C472.773 625.988 486.654 604.438 499.918 584.539C528.665 541.411 554.493 506.07 582.852 477.086C639.524 419.163 706.373 386.55 827.039 368.124C887.078 358.956 933.907 386.669 973.5 432.283C1013.11 477.922 1045.38 541.372 1076.27 603.437C1077.65 606.205 1079.02 608.97 1080.4 611.731C1109.77 670.821 1138.14 727.882 1170.66 765.941C1187.68 785.87 1205.89 800.65 1226.04 807.77C1246.22 814.899 1268.27 814.322 1292.89 803.671C1341.23 782.758 1364.68 759.752 1375.57 735.898C1375.6 750.813 1373.88 765.714 1367.42 780.337C1356.94 804.086 1333.89 827.233 1285.06 848.358C1260.75 858.875 1239.09 859.409 1219.31 852.419C1199.5 845.42 1181.5 830.852 1164.57 811.03C1132.18 773.117 1103.88 716.209 1074.46 657.036L1074.16 656.427C1072.9 653.899 1071.64 651.367 1070.38 648.832C1039.51 586.803 1007.16 523.172 967.401 477.363C927.618 431.531 880.317 403.43 819.581 412.705C698.698 431.164 631.511 463.879 574.547 522.1C546.088 551.188 520.197 586.623 491.437 629.77C478.163 649.684 464.273 671.249 449.236 694.596C447.981 696.543 446.719 698.502 445.449 700.474C428.944 726.092 411.038 753.819 391.048 783.832C327.26 879.6 227.858 908.066 129.383 904.694C30.8903 901.321 -66.5662 866.092 -126.208 834.61L-126.909 835.937C-67.1238 867.494 30.555 902.81 129.331 906.193C228.124 909.576 328.124 881.01 392.296 784.663C412.293 754.64 430.205 726.905 446.71 701.286C447.979 699.316 449.241 697.358 450.494 695.412L450.504 695.397C465.54 672.053 479.421 650.502 492.685 630.602C521.433 587.474 547.261 552.134 575.619 523.149C632.292 465.226 699.141 432.613 819.807 414.188C879.845 405.02 926.675 432.732 966.268 478.347C1005.88 523.985 1038.15 587.435 1069.04 649.5C1070.42 652.268 1071.79 655.034 1073.16 657.794C1102.54 716.884 1130.91 773.945 1163.42 812.005C1180.45 831.933 1198.66 846.713 1218.81 853.833C1238.99 860.962 1261.03 860.386 1285.65 849.734C1334.68 828.523 1358.11 805.161 1368.8 780.943C1375.85 764.958 1377.33 748.658 1377.04 732.498C1383.23 717.278 1384.55 701.792 1384.27 686.435C1390.46 671.214 1391.78 655.729 1391.5 640.371C1393.75 634.838 1395.36 629.27 1396.48 623.686C1411.11 608.512 1435.11 594.571 1474.1 582.481L1473.65 581.048C1435.9 592.757 1411.96 606.25 1396.97 621.053C1398.52 612.146 1398.9 603.206 1398.74 594.308C1400.99 588.775 1402.59 583.207 1403.71 577.622C1418.34 562.449 1442.34 548.508 1481.33 536.418L1480.88 534.985C1443.13 546.694 1419.2 560.187 1404.21 574.989C1405.75 566.083 1406.13 557.142 1405.97 548.245C1408.22 542.712 1409.82 537.144 1410.94 531.559C1425.57 516.386 1449.58 502.445 1488.56 490.355L1488.12 488.922C1450.36 500.63 1426.43 514.124 1411.44 528.926C1413.6 516.497 1413.48 504.003 1412.8 491.65C1426.65 474.085 1451.59 457.999 1495.79 444.291L1495.35 442.859C1452.09 456.274 1426.98 472.033 1412.67 489.418C1412.47 486.09 1412.24 482.774 1412.01 479.472L1411.87 477.492C1411.47 471.761 1411.09 466.081 1410.92 460.465C1411.76 458.619 1412.69 456.786 1413.72 454.969C1425.72 433.743 1451.07 414.342 1503.02 398.228L1502.58 396.795C1450.47 412.957 1424.69 432.519 1412.41 454.231C1411.86 455.207 1411.33 456.188 1410.83 457.173C1410.55 440.336 1412.35 424.112 1420.95 408.906C1432.95 387.68 1458.3 368.279 1510.26 352.165L1509.81 350.732C1457.7 366.894 1431.92 386.456 1419.64 408.167C1410.35 424.594 1408.86 442.161 1409.4 460.167C1402.79 474.862 1401.69 490.376 1402.17 506.23C1395.56 520.925 1394.46 536.439 1394.94 552.294C1391.92 559.01 1390.05 565.897 1388.95 572.909C1375.42 588.584 1354.2 603.774 1321.22 618.041C1296.91 628.558 1275.26 629.093 1255.47 622.103C1235.67 615.104 1217.66 600.536 1200.73 580.714C1168.34 542.801 1140.04 485.892 1110.62 426.72C1109.27 423.989 1107.91 421.254 1106.54 418.516C1075.68 356.487 1043.32 292.855 1003.56 247.047C963.78 201.214 916.479 173.114 855.742 182.388C734.859 200.847 667.673 233.563 610.709 291.784C582.249 320.871 556.359 356.307 527.599 399.454C514.33 419.362 500.444 440.919 485.412 464.256L485.409 464.262L485.401 464.273L485.397 464.279C484.143 466.226 482.881 468.186 481.611 470.158C465.106 495.776 447.2 523.503 427.21 553.516C363.422 649.284 264.02 677.75 165.544 674.377C67.0521 671.004 -30.4044 635.776 -90.0466 604.294L-90.7468 605.62C-30.962 637.178 66.7168 672.494 165.493 675.877C264.286 679.26 364.286 650.694 428.458 554.347ZM1395.1 622.961C1396.74 614.58 1397.28 606.147 1397.27 597.708C1395.25 602.127 1392.8 606.516 1389.84 610.867C1389.89 611.625 1389.94 612.383 1390 613.141C1390.05 613.987 1390.11 614.834 1390.17 615.681L1390.31 617.662C1390.54 620.964 1390.77 624.28 1390.97 627.608C1392.26 626.046 1393.63 624.497 1395.1 622.961ZM1389.57 629.361C1389.35 625.449 1389.08 621.543 1388.8 617.646L1388.67 615.786C1388.61 614.801 1388.54 613.817 1388.47 612.834C1386.84 615.109 1385.06 617.374 1383.14 619.627C1382.06 626.752 1381.78 634.03 1381.91 641.425C1382.4 640.441 1382.93 639.46 1383.48 638.484C1385.23 635.398 1387.24 632.356 1389.57 629.361ZM1381.99 644.717C1382.83 642.872 1383.76 641.04 1384.79 639.222C1386.22 636.681 1387.85 634.166 1389.69 631.68C1389.83 634.483 1389.94 637.288 1390 640.093C1389.72 640.779 1389.42 641.463 1389.12 642.147C1387.3 646.27 1385.1 650.375 1382.46 654.455C1382.26 651.19 1382.09 647.943 1381.99 644.717ZM1380.61 647.953C1378.68 652.802 1377.32 657.742 1376.39 662.761C1378.08 660.685 1379.64 658.602 1381.08 656.511C1380.9 653.65 1380.73 650.797 1380.61 647.953ZM1375.9 665.69C1374.2 676.963 1374.5 688.617 1375.22 700.518C1377.87 696.439 1380.07 692.334 1381.89 688.211C1382.19 687.527 1382.48 686.842 1382.76 686.157C1382.62 678.662 1382.09 671.168 1381.57 663.71L1381.57 663.709L1381.44 661.849C1381.37 660.864 1381.31 659.88 1381.24 658.897C1379.61 661.172 1377.83 663.437 1375.9 665.69ZM1375.38 702.994C1375.48 704.595 1375.59 706.199 1375.71 707.808L1375.84 709.789C1376.28 716.005 1376.72 722.276 1376.93 728.574C1381.53 715.787 1382.83 702.817 1382.8 689.835C1380.79 694.253 1378.34 698.642 1375.38 702.994ZM1391.1 629.84C1392.16 628.491 1393.29 627.151 1394.49 625.82C1393.68 629.374 1392.67 632.917 1391.4 636.447C1391.32 634.241 1391.22 632.038 1391.1 629.84ZM1383.63 616.698C1384.55 611.679 1385.91 606.738 1387.84 601.889C1387.96 604.733 1388.13 607.587 1388.31 610.448C1386.88 612.539 1385.32 614.622 1383.63 616.698ZM1382.94 661.745C1382.83 660.136 1382.72 658.531 1382.61 656.931C1385.57 652.579 1388.02 648.19 1390.04 643.771C1390.06 656.753 1388.76 669.724 1384.17 682.51C1383.95 676.213 1383.51 669.942 1383.08 663.725L1382.94 661.745ZM1392.02 593.159C1390.99 594.976 1390.06 596.808 1389.22 598.654C1389.32 601.879 1389.49 605.126 1389.69 608.391C1392.33 604.312 1394.53 600.207 1396.35 596.084C1396.66 595.4 1396.95 594.716 1397.23 594.03C1397.17 591.225 1397.07 588.42 1396.93 585.617C1395.08 588.103 1393.46 590.618 1392.02 593.159ZM1390.71 592.42C1392.46 589.335 1394.48 586.293 1396.8 583.298C1396.58 579.392 1396.31 575.491 1396.04 571.6L1396.04 571.585L1396.04 571.584L1396.04 571.582L1395.91 569.722C1395.84 568.738 1395.77 567.754 1395.7 566.77C1394.07 569.046 1392.3 571.31 1390.37 573.563C1389.29 580.689 1389.01 587.966 1389.14 595.362C1389.64 594.378 1390.16 593.397 1390.71 592.42ZM1398.63 590.384C1398.56 588.178 1398.45 585.975 1398.33 583.777C1399.4 582.428 1400.53 581.088 1401.72 579.756C1400.92 583.311 1399.9 586.854 1398.63 590.384ZM1398.2 581.545C1399.49 579.982 1400.86 578.433 1402.33 576.898C1403.97 568.517 1404.52 560.083 1404.5 551.645C1402.48 556.063 1400.03 560.452 1397.08 564.804C1397.18 566.405 1397.29 568.01 1397.4 569.618L1397.54 571.599C1397.77 574.9 1398 578.217 1398.2 581.545ZM1390.86 570.634C1391.79 565.615 1393.14 560.675 1395.07 555.826C1395.2 558.67 1395.36 561.524 1395.55 564.385C1394.11 566.475 1392.55 568.559 1390.86 570.634ZM1396.45 552.591C1396.55 555.816 1396.72 559.063 1396.92 562.328C1399.57 558.249 1401.77 554.144 1403.59 550.021C1403.89 549.337 1404.18 548.652 1404.46 547.967C1404.41 545.162 1404.3 542.356 1404.16 539.553C1402.32 542.04 1400.69 544.554 1399.25 547.095C1398.22 548.913 1397.29 550.745 1396.45 552.591ZM1405.56 537.714C1405.69 539.912 1405.79 542.114 1405.86 544.32C1407.13 540.791 1408.15 537.247 1408.96 533.693C1407.76 535.024 1406.63 536.365 1405.56 537.714ZM1409.56 530.835C1408.1 532.37 1406.72 533.919 1405.44 535.482C1405.24 532.154 1405.01 528.837 1404.77 525.536L1404.64 523.555C1404.24 517.824 1403.86 512.144 1403.68 506.528C1404.52 504.682 1405.46 502.85 1406.48 501.032C1407.92 498.491 1409.55 495.976 1411.39 493.49C1412.02 505.95 1411.99 518.449 1409.56 530.835ZM1404.03 537.234C1401.71 540.23 1399.69 543.272 1397.95 546.357C1397.39 547.334 1396.87 548.314 1396.37 549.299C1396.14 535.645 1397.28 522.395 1402.3 509.763C1402.51 514.373 1402.82 519.009 1403.14 523.659L1403.27 525.519L1403.27 525.521L1403.27 525.521C1403.54 529.418 1403.81 533.324 1404.03 537.234ZM1410.5 479.457L1410.5 479.473C1410.77 483.364 1411.05 487.265 1411.27 491.171C1408.94 494.166 1406.92 497.208 1405.18 500.294C1404.63 501.27 1404.1 502.251 1403.6 503.236C1403.37 489.582 1404.51 476.332 1409.54 463.7C1409.74 468.31 1410.05 472.946 1410.37 477.596L1410.5 479.456L1410.5 479.457Z" fill="#F4F6F8"/>
</svg>
