<svg width="1347" height="679" viewBox="0 0 1347 679" fill="none" xmlns="http://www.w3.org/2000/svg">
<path opacity="0.5" fill-rule="evenodd" clip-rule="evenodd" d="M407.916 590.352C378.951 647.992 348.254 672.319 315.931 676.634C283.549 680.956 249.251 665.244 212.935 642.072C196.001 631.266 178.669 618.866 160.923 606.171L160.922 606.17C159.658 605.266 158.392 604.36 157.124 603.453C138.058 589.82 118.521 575.957 98.5297 563.492C58.5581 538.567 16.6779 519.167 -27.0475 518.359L-27.0326 519.841C16.2617 520.642 57.8427 539.857 97.7401 564.735C117.683 577.171 137.183 591.006 156.251 604.641C157.524 605.551 158.795 606.461 160.065 607.369C177.799 620.057 195.162 632.478 212.132 643.306C248.467 666.491 283.195 682.506 316.179 678.103C349.223 673.692 380.233 648.842 409.282 591.036C438.252 533.387 470.936 493.475 507.239 465.609C543.539 437.744 583.494 421.896 627.05 412.424C670.618 402.95 717.772 399.86 768.476 397.504C776.426 397.135 784.462 396.784 792.586 396.429L792.588 396.429C836.259 394.52 882.433 392.502 931.029 386.98C1023.42 376.482 1111.85 320.683 1184.81 255.3C1257.78 189.904 1315.36 114.839 1346.07 65.6541L1344.77 64.8556C1314.12 113.941 1256.62 188.899 1183.76 254.194C1110.89 319.501 1022.75 375.062 930.811 385.507C882.273 391.022 836.16 393.038 792.489 394.947C784.361 395.302 776.318 395.654 768.36 396.023C717.657 398.379 670.387 401.472 626.68 410.977C582.961 420.483 542.791 436.408 506.28 464.433C469.772 492.457 436.961 532.553 407.916 590.352ZM393.663 552.042C364.698 609.683 334 634.01 301.678 638.324C269.296 642.647 234.998 626.935 198.682 603.762C181.747 592.956 164.415 580.556 146.669 567.861C145.405 566.956 144.139 566.051 142.871 565.144C123.805 551.511 104.268 537.648 84.2765 525.183C44.3049 500.258 2.42468 480.858 -41.3007 480.049L-41.2858 481.532C2.00852 482.332 43.5895 501.548 83.4869 526.426C103.43 538.862 122.93 552.697 141.998 566.332C143.068 567.097 144.136 567.861 145.204 568.625L145.812 569.06C163.546 581.747 180.909 594.169 197.879 604.997C234.214 628.182 268.942 644.196 301.926 639.793C334.97 635.383 365.98 610.533 395.029 552.726C423.998 495.078 456.683 455.166 492.985 427.3C529.286 399.435 569.241 383.586 612.797 374.115C656.365 364.641 703.519 361.551 754.223 359.195C762.156 358.826 770.176 358.476 778.283 358.121L778.333 358.119L778.335 358.119C822.006 356.21 868.18 354.192 916.775 348.671C1009.17 338.173 1097.6 282.374 1170.55 216.99C1243.52 151.594 1301.11 76.5294 1331.82 27.3448L1330.52 26.5462C1299.87 75.6315 1242.37 150.589 1169.51 215.885C1096.64 281.192 1008.49 336.752 916.558 347.198C868.02 352.713 821.907 354.729 778.235 356.637L778.227 356.638C770.103 356.993 762.063 357.344 754.107 357.714C703.404 360.07 656.134 363.163 612.427 372.667C568.708 382.174 528.537 398.098 492.027 426.124C455.519 454.148 422.708 494.244 393.663 552.042ZM379.41 513.733C350.445 571.373 319.747 595.7 287.425 600.015C255.043 604.338 220.745 588.626 184.429 565.453C167.494 554.647 150.162 542.247 132.416 529.551L130.773 528.376L128.618 526.835C109.552 513.202 90.0148 499.339 70.0236 486.873C30.052 461.949 -11.8282 442.548 -55.5536 441.74L-55.5387 443.222C-12.2444 444.023 29.3365 463.238 69.2339 488.116C89.1772 500.552 108.677 514.388 127.745 528.022C128.815 528.787 129.883 529.552 130.951 530.315L131.559 530.75C149.293 543.438 166.656 555.859 183.626 566.687C219.961 589.873 254.689 605.887 287.673 601.484C320.717 597.073 351.727 572.224 380.776 514.417C409.745 456.768 442.43 416.857 478.733 388.99C515.033 361.126 554.988 345.277 598.544 335.806C642.112 326.332 689.266 323.241 739.97 320.886C747.903 320.517 755.923 320.166 764.03 319.812L764.08 319.81L764.082 319.81C807.753 317.901 853.927 315.883 902.523 310.362C994.917 299.864 1083.34 244.065 1156.3 178.681C1229.27 113.285 1286.85 38.2201 1317.57 -10.9645L1316.27 -11.7631C1285.61 37.3222 1228.11 112.28 1155.26 177.575C1082.38 242.883 994.241 298.443 902.305 308.889C853.767 314.403 807.654 316.419 763.983 318.328L763.974 318.329C755.85 318.684 747.81 319.035 739.854 319.405C689.151 321.76 641.881 324.854 598.174 334.358C554.455 343.865 514.285 359.789 477.774 387.815C441.266 415.839 408.455 455.934 379.41 513.733ZM273.172 561.706C305.494 557.391 336.192 533.064 365.157 475.424C394.202 417.625 427.013 377.529 463.521 349.505C500.031 321.48 540.202 305.555 583.921 296.049C627.628 286.544 674.898 283.451 725.601 281.095C733.559 280.726 741.602 280.374 749.729 280.019C793.4 278.11 839.514 276.094 888.051 270.579C979.987 260.134 1068.13 204.573 1141 139.266C1213.86 73.9707 1271.36 -0.987177 1302.01 -50.0724L1303.31 -49.2739C1272.6 -0.0892493 1215.02 74.9757 1142.05 140.372C1069.09 205.755 980.664 261.554 888.269 272.052C839.674 277.573 793.5 279.592 749.829 281.501L749.826 281.501L749.776 281.503C741.67 281.857 733.65 282.208 725.716 282.576C675.012 284.932 627.859 288.022 584.291 297.496C540.735 306.968 500.78 322.816 464.479 350.681C428.177 378.547 395.492 418.459 366.523 476.108C337.474 533.914 306.464 558.764 273.42 563.175C240.436 567.577 205.708 551.563 169.372 528.378C152.402 517.55 135.04 505.128 117.305 492.441L116.709 492.014C115.638 491.248 114.565 490.481 113.492 489.713C94.4233 476.078 74.9239 462.243 54.9806 449.807C15.0832 424.929 -26.4978 405.713 -69.7921 404.913L-69.807 403.431C-26.0816 404.239 15.7986 423.639 55.7703 448.564C75.7615 461.029 95.2986 474.892 114.364 488.525L115.992 489.689L118.163 491.242L118.164 491.243C135.91 503.939 153.241 516.338 170.176 527.144C206.492 550.316 240.789 566.028 273.172 561.706ZM350.903 437.114C321.938 494.755 291.241 519.082 258.919 523.396C226.536 527.719 192.238 512.007 155.922 488.834C138.988 478.028 121.656 465.629 103.91 452.933L103.909 452.932C102.645 452.028 101.379 451.123 100.111 450.216C81.0451 436.583 61.508 422.72 41.5168 410.255C1.54516 385.33 -40.335 365.93 -84.0604 365.121L-84.0455 366.604C-40.7512 367.404 0.829745 386.62 40.7271 411.498C60.6704 423.934 80.1699 437.769 99.2382 451.404C100.308 452.169 101.377 452.933 102.444 453.697L103.052 454.132C120.786 466.819 138.149 479.241 155.119 490.069C191.454 513.254 226.182 529.268 259.166 524.865C292.21 520.455 323.22 495.605 352.269 437.798C381.239 380.15 413.923 340.238 450.226 312.372C486.526 284.507 526.481 268.658 570.037 259.187C613.605 249.713 660.759 246.623 711.463 244.267C719.402 243.898 727.428 243.547 735.541 243.193L735.575 243.191C779.246 241.282 825.42 239.264 874.016 233.743C966.411 223.245 1054.84 167.446 1127.79 102.062C1200.76 36.6664 1258.35 -38.3986 1289.06 -87.5832L1287.76 -88.3817C1257.11 -39.2965 1199.61 35.6613 1126.75 100.957C1053.88 166.264 965.734 221.824 873.798 232.27C825.26 237.785 779.147 239.801 735.476 241.709L735.476 241.709C727.348 242.065 719.306 242.416 711.347 242.786C660.644 245.142 613.374 248.235 569.667 257.739C525.948 267.246 485.778 283.17 449.268 311.196C412.759 339.22 379.948 379.316 350.903 437.114ZM244.665 485.087C276.987 480.772 307.685 456.445 336.65 398.805C365.695 341.006 398.506 300.91 435.014 272.886C471.525 244.861 511.695 228.937 555.414 219.43C599.121 209.926 646.391 206.832 697.094 204.477C705.052 204.107 713.095 203.755 721.223 203.4L721.223 203.4C764.894 201.491 811.007 199.475 859.545 193.961C951.481 183.515 1039.62 127.955 1112.5 62.6471C1185.35 -2.64809 1242.85 -77.6059 1273.51 -126.691L1274.81 -125.893C1244.09 -76.708 1186.51 -1.64308 1113.54 63.7529C1040.58 129.137 952.157 184.936 859.763 195.433C811.167 200.955 764.993 202.973 721.322 204.882L721.288 204.883C713.175 205.238 705.149 205.589 697.21 205.958C646.506 208.313 599.352 211.403 555.784 220.878C512.228 230.349 472.273 246.198 435.973 274.062C399.67 301.928 366.985 341.84 338.016 399.489C308.967 457.296 277.957 482.145 244.913 486.556C211.929 490.959 177.201 474.945 140.866 451.759C123.896 440.931 106.533 428.51 88.7987 415.822L88.1906 415.387C87.1235 414.624 86.0549 413.859 84.985 413.094C65.9166 399.46 46.4172 385.624 26.4739 373.188C-13.4235 348.31 -55.0044 329.095 -98.2987 328.294L-98.3136 326.812C-54.5883 327.62 -12.7081 347.021 27.2636 371.945C47.2548 384.411 66.7919 398.273 85.8578 411.906C87.1259 412.813 88.392 413.719 89.6559 414.623L89.6575 414.624L89.6607 414.627C107.405 427.321 124.736 439.72 141.669 450.525C177.985 473.698 212.283 489.409 244.665 485.087Z" fill="url(#paint0_linear)"/>
<defs>
<linearGradient id="paint0_linear" x1="1249.24" y1="356.879" x2="147.014" y2="581.127" gradientUnits="userSpaceOnUse">
<stop stop-color="#846CCA"/>
<stop offset="0.453125" stop-color="#215D71"/>
<stop offset="1" stop-color="#81782C"/>
</linearGradient>
</defs>
</svg>
